<mxfile host="app.diagrams.net" agent="Mozilla/5.0 (Windows NT 10.0; Win64; x64) AppleWebKit/537.36 (KHTML, like Gecko) Chrome/132.0.0.0 YaBrowser/25.2.0.0 Safari/537.36" version="26.1.3">
  <diagram id="xrxMtvPM4jD022jB3djA" name="ER модель">
    <mxGraphModel dx="1386" dy="829" grid="1" gridSize="10" guides="1" tooltips="1" connect="1" arrows="1" fold="1" page="1" pageScale="1" pageWidth="827" pageHeight="1169" math="0" shadow="0">
      <root>
        <mxCell id="0" />
        <mxCell id="1" parent="0" />
        <mxCell id="iiYwfUWWMAuivROCwT6N-1" style="edgeStyle=orthogonalEdgeStyle;rounded=0;orthogonalLoop=1;jettySize=auto;html=1;entryX=0;entryY=0.25;entryDx=0;entryDy=0;fontSize=11;startArrow=ERmandOne;startFill=0;endArrow=ERzeroToMany;endFill=0;exitX=1;exitY=0.144;exitDx=0;exitDy=0;exitPerimeter=0;" parent="1" source="iiYwfUWWMAuivROCwT6N-3" target="iiYwfUWWMAuivROCwT6N-5" edge="1">
          <mxGeometry relative="1" as="geometry" />
        </mxCell>
        <mxCell id="iiYwfUWWMAuivROCwT6N-2" value="Клиника" style="swimlane;childLayout=stackLayout;horizontal=1;startSize=30;horizontalStack=0;rounded=1;fontSize=14;fontStyle=0;strokeWidth=2;resizeParent=0;resizeLast=1;shadow=0;dashed=0;align=center;" parent="1" vertex="1">
          <mxGeometry x="70" y="50" width="160" height="130" as="geometry" />
        </mxCell>
        <mxCell id="iiYwfUWWMAuivROCwT6N-3" value="*Номер клиники&#xa;Индекс&#xa;Город&#xa;Улица&#xa;Дом&#xa;Номер телефона" style="align=left;strokeColor=none;fillColor=none;spacingLeft=4;fontSize=12;verticalAlign=top;resizable=0;rotatable=0;part=1;" parent="iiYwfUWWMAuivROCwT6N-2" vertex="1">
          <mxGeometry y="30" width="160" height="100" as="geometry" />
        </mxCell>
        <mxCell id="iiYwfUWWMAuivROCwT6N-4" value="Врач" style="swimlane;childLayout=stackLayout;horizontal=1;startSize=30;horizontalStack=0;rounded=1;fontSize=14;fontStyle=0;strokeWidth=2;resizeParent=0;resizeLast=1;shadow=0;dashed=0;align=center;" parent="1" vertex="1">
          <mxGeometry x="340" y="50" width="160" height="140" as="geometry" />
        </mxCell>
        <mxCell id="iiYwfUWWMAuivROCwT6N-5" value="*Табельный номер&#xa;Фамилия&#xa;Имя&#xa;Отчество &#xa;Стаж работы&#xa;Образование&#xa;Специализация" style="align=left;strokeColor=none;fillColor=none;spacingLeft=4;fontSize=12;verticalAlign=top;resizable=0;rotatable=0;part=1;" parent="iiYwfUWWMAuivROCwT6N-4" vertex="1">
          <mxGeometry y="30" width="160" height="110" as="geometry" />
        </mxCell>
        <mxCell id="iiYwfUWWMAuivROCwT6N-6" value="Пациент" style="swimlane;childLayout=stackLayout;horizontal=1;startSize=30;horizontalStack=0;rounded=1;fontSize=14;fontStyle=0;strokeWidth=2;resizeParent=0;resizeLast=1;shadow=0;dashed=0;align=center;" parent="1" vertex="1">
          <mxGeometry x="920" y="50" width="160" height="170" as="geometry" />
        </mxCell>
        <mxCell id="iiYwfUWWMAuivROCwT6N-7" value="*Номер карты&#xa;Фамилия&#xa;Имя &#xa;Отчество&#xa;Дата рождения&#xa;Номер телефона&#xa;Серия и номер паспорта&#xa;Страховой полис&#xa;Электронная почта" style="align=left;strokeColor=none;fillColor=none;spacingLeft=4;fontSize=12;verticalAlign=top;resizable=0;rotatable=0;part=1;" parent="iiYwfUWWMAuivROCwT6N-6" vertex="1">
          <mxGeometry y="30" width="160" height="140" as="geometry" />
        </mxCell>
        <mxCell id="iiYwfUWWMAuivROCwT6N-8" value="Запись" style="swimlane;childLayout=stackLayout;horizontal=1;startSize=30;horizontalStack=0;rounded=1;fontSize=14;fontStyle=0;strokeWidth=2;resizeParent=0;resizeLast=1;shadow=0;dashed=0;align=center;" parent="1" vertex="1">
          <mxGeometry x="640" y="50" width="160" height="100" as="geometry" />
        </mxCell>
        <mxCell id="iiYwfUWWMAuivROCwT6N-9" value="*Номер&#xa;Дата&#xa;Время&#xa;Номер кабинета" style="align=left;strokeColor=none;fillColor=none;spacingLeft=4;fontSize=12;verticalAlign=top;resizable=0;rotatable=0;part=1;" parent="iiYwfUWWMAuivROCwT6N-8" vertex="1">
          <mxGeometry y="30" width="160" height="70" as="geometry" />
        </mxCell>
        <mxCell id="iiYwfUWWMAuivROCwT6N-10" style="edgeStyle=orthogonalEdgeStyle;rounded=0;orthogonalLoop=1;jettySize=auto;html=1;entryX=1.001;entryY=0.205;entryDx=0;entryDy=0;fontSize=11;startArrow=ERmandOne;startFill=0;endArrow=ERzeroToMany;endFill=0;exitX=0;exitY=0.25;exitDx=0;exitDy=0;entryPerimeter=0;" parent="1" source="iiYwfUWWMAuivROCwT6N-6" target="iiYwfUWWMAuivROCwT6N-9" edge="1">
          <mxGeometry relative="1" as="geometry" />
        </mxCell>
        <mxCell id="iiYwfUWWMAuivROCwT6N-11" style="edgeStyle=orthogonalEdgeStyle;rounded=0;orthogonalLoop=1;jettySize=auto;html=1;entryX=0;entryY=0.5;entryDx=0;entryDy=0;fontSize=11;startArrow=ERmandOne;startFill=0;endArrow=ERzeroToMany;endFill=0;exitX=1;exitY=0.25;exitDx=0;exitDy=0;" parent="1" source="iiYwfUWWMAuivROCwT6N-5" target="iiYwfUWWMAuivROCwT6N-9" edge="1">
          <mxGeometry relative="1" as="geometry">
            <mxPoint x="500" y="90" as="sourcePoint" />
          </mxGeometry>
        </mxCell>
        <mxCell id="iiYwfUWWMAuivROCwT6N-12" value="&lt;font style=&quot;font-size: 12px;&quot;&gt;Работает&lt;/font&gt;" style="text;html=1;strokeColor=none;fillColor=none;align=center;verticalAlign=middle;whiteSpace=wrap;rounded=0;fontSize=20;" parent="1" vertex="1">
          <mxGeometry x="250" y="50" width="60" height="30" as="geometry" />
        </mxCell>
        <mxCell id="iiYwfUWWMAuivROCwT6N-13" value="&lt;font style=&quot;font-size: 12px;&quot;&gt;Принимает&lt;/font&gt;" style="text;html=1;strokeColor=none;fillColor=none;align=center;verticalAlign=middle;whiteSpace=wrap;rounded=0;fontSize=20;" parent="1" vertex="1">
          <mxGeometry x="540" y="60" width="60" height="30" as="geometry" />
        </mxCell>
        <mxCell id="iiYwfUWWMAuivROCwT6N-14" value="&lt;font style=&quot;font-size: 12px;&quot;&gt;Приходит&lt;/font&gt;" style="text;html=1;strokeColor=none;fillColor=none;align=center;verticalAlign=middle;whiteSpace=wrap;rounded=0;fontSize=20;" parent="1" vertex="1">
          <mxGeometry x="827" y="60" width="60" height="30" as="geometry" />
        </mxCell>
        <mxCell id="zKQEcSLCpPxhF2zVhgCG-1" value="Расписание." style="swimlane;childLayout=stackLayout;horizontal=1;startSize=30;horizontalStack=0;rounded=1;fontSize=14;fontStyle=0;strokeWidth=2;resizeParent=0;resizeLast=1;shadow=0;dashed=0;align=center;" parent="1" vertex="1">
          <mxGeometry x="70" y="420" width="160" height="110" as="geometry" />
        </mxCell>
        <mxCell id="zKQEcSLCpPxhF2zVhgCG-2" value="*id&#xa;Тип дня&#xa;Время начала&#xa;Время окончания" style="align=left;strokeColor=none;fillColor=none;spacingLeft=4;fontSize=12;verticalAlign=top;resizable=0;rotatable=0;part=1;" parent="zKQEcSLCpPxhF2zVhgCG-1" vertex="1">
          <mxGeometry y="30" width="160" height="80" as="geometry" />
        </mxCell>
        <mxCell id="zKQEcSLCpPxhF2zVhgCG-3" value="Уведомление" style="swimlane;childLayout=stackLayout;horizontal=1;startSize=30;horizontalStack=0;rounded=1;fontSize=14;fontStyle=0;strokeWidth=2;resizeParent=0;resizeLast=1;shadow=0;dashed=0;align=center;" parent="1" vertex="1">
          <mxGeometry x="640" y="450" width="160" height="90" as="geometry" />
        </mxCell>
        <mxCell id="zKQEcSLCpPxhF2zVhgCG-4" value="*id&#xa;Дата и время&#xa;Комментарий" style="align=left;strokeColor=none;fillColor=none;spacingLeft=4;fontSize=12;verticalAlign=top;resizable=0;rotatable=0;part=1;" parent="zKQEcSLCpPxhF2zVhgCG-3" vertex="1">
          <mxGeometry y="30" width="160" height="60" as="geometry" />
        </mxCell>
        <mxCell id="zKQEcSLCpPxhF2zVhgCG-5" value="Результат " style="swimlane;childLayout=stackLayout;horizontal=1;startSize=20;horizontalStack=0;rounded=1;fontSize=14;fontStyle=0;strokeWidth=2;resizeParent=0;resizeLast=1;shadow=0;dashed=0;align=center;" parent="1" vertex="1">
          <mxGeometry x="920" y="280" width="160" height="110" as="geometry" />
        </mxCell>
        <mxCell id="zKQEcSLCpPxhF2zVhgCG-6" value="*Название анализа&#xa;Результат&#xa;Референсные значения&#xa;Ссылка на распечатку" style="align=left;strokeColor=none;fillColor=none;spacingLeft=4;fontSize=12;verticalAlign=top;resizable=0;rotatable=0;part=1;" parent="zKQEcSLCpPxhF2zVhgCG-5" vertex="1">
          <mxGeometry y="20" width="160" height="90" as="geometry" />
        </mxCell>
        <mxCell id="zKQEcSLCpPxhF2zVhgCG-7" value="Кабинеты" style="swimlane;childLayout=stackLayout;horizontal=1;startSize=30;horizontalStack=0;rounded=1;fontSize=14;fontStyle=0;strokeWidth=2;resizeParent=0;resizeLast=1;shadow=0;dashed=0;align=center;" parent="1" vertex="1">
          <mxGeometry x="70" y="250" width="160" height="100" as="geometry" />
        </mxCell>
        <mxCell id="zKQEcSLCpPxhF2zVhgCG-8" value="*Номер кабинета&#xa;Название&#xa;Этаж&#xa;Телефон" style="align=left;strokeColor=none;fillColor=none;spacingLeft=4;fontSize=12;verticalAlign=top;resizable=0;rotatable=0;part=1;" parent="zKQEcSLCpPxhF2zVhgCG-7" vertex="1">
          <mxGeometry y="30" width="160" height="70" as="geometry" />
        </mxCell>
        <mxCell id="zKQEcSLCpPxhF2zVhgCG-9" style="edgeStyle=orthogonalEdgeStyle;rounded=0;orthogonalLoop=1;jettySize=auto;html=1;exitX=0.5;exitY=1;exitDx=0;exitDy=0;entryX=0.5;entryY=0;entryDx=0;entryDy=0;startArrow=ERmandOne;startFill=0;endArrow=ERzeroToMany;endFill=0;" parent="1" source="iiYwfUWWMAuivROCwT6N-3" target="zKQEcSLCpPxhF2zVhgCG-7" edge="1">
          <mxGeometry relative="1" as="geometry" />
        </mxCell>
        <mxCell id="zKQEcSLCpPxhF2zVhgCG-17" value="Находятся" style="edgeLabel;html=1;align=center;verticalAlign=middle;resizable=0;points=[];" parent="zKQEcSLCpPxhF2zVhgCG-9" vertex="1" connectable="0">
          <mxGeometry x="-0.1476" y="-3" relative="1" as="geometry">
            <mxPoint x="43" as="offset" />
          </mxGeometry>
        </mxCell>
        <mxCell id="zKQEcSLCpPxhF2zVhgCG-10" style="edgeStyle=orthogonalEdgeStyle;rounded=0;orthogonalLoop=1;jettySize=auto;html=1;exitX=0.5;exitY=1;exitDx=0;exitDy=0;entryX=0.5;entryY=0;entryDx=0;entryDy=0;startArrow=ERmandOne;startFill=0;endArrow=ERzeroToMany;endFill=0;" parent="1" source="zKQEcSLCpPxhF2zVhgCG-8" target="zKQEcSLCpPxhF2zVhgCG-1" edge="1">
          <mxGeometry relative="1" as="geometry">
            <mxPoint x="245" y="200" as="sourcePoint" />
            <mxPoint x="315" y="310" as="targetPoint" />
          </mxGeometry>
        </mxCell>
        <mxCell id="zKQEcSLCpPxhF2zVhgCG-18" value="Имеют" style="edgeLabel;html=1;align=center;verticalAlign=middle;resizable=0;points=[];" parent="zKQEcSLCpPxhF2zVhgCG-10" vertex="1" connectable="0">
          <mxGeometry x="-0.0048" y="-2" relative="1" as="geometry">
            <mxPoint x="32" y="-5" as="offset" />
          </mxGeometry>
        </mxCell>
        <mxCell id="zKQEcSLCpPxhF2zVhgCG-11" value="Назначения" style="swimlane;childLayout=stackLayout;horizontal=1;startSize=20;horizontalStack=0;rounded=1;fontSize=14;fontStyle=0;strokeWidth=2;resizeParent=0;resizeLast=1;shadow=0;dashed=0;align=center;" parent="1" vertex="1">
          <mxGeometry x="640" y="280" width="160" height="110" as="geometry" />
        </mxCell>
        <mxCell id="zKQEcSLCpPxhF2zVhgCG-12" value="*id&#xa;Вид исследования&#xa;Название анализа&#xa;Заключение&#xa;Статус выполнения" style="align=left;strokeColor=none;fillColor=none;spacingLeft=4;fontSize=12;verticalAlign=top;resizable=0;rotatable=0;part=1;" parent="zKQEcSLCpPxhF2zVhgCG-11" vertex="1">
          <mxGeometry y="20" width="160" height="90" as="geometry" />
        </mxCell>
        <mxCell id="zKQEcSLCpPxhF2zVhgCG-13" style="edgeStyle=orthogonalEdgeStyle;rounded=0;orthogonalLoop=1;jettySize=auto;html=1;exitX=0.5;exitY=1;exitDx=0;exitDy=0;entryX=0.5;entryY=0;entryDx=0;entryDy=0;startArrow=ERmandOne;startFill=0;endArrow=ERzeroToMany;endFill=0;" parent="1" source="iiYwfUWWMAuivROCwT6N-9" target="zKQEcSLCpPxhF2zVhgCG-11" edge="1">
          <mxGeometry relative="1" as="geometry">
            <mxPoint x="770" y="230" as="sourcePoint" />
            <mxPoint x="840" y="340" as="targetPoint" />
          </mxGeometry>
        </mxCell>
        <mxCell id="zKQEcSLCpPxhF2zVhgCG-19" value="Содержит" style="edgeLabel;html=1;align=center;verticalAlign=middle;resizable=0;points=[];" parent="zKQEcSLCpPxhF2zVhgCG-13" vertex="1" connectable="0">
          <mxGeometry x="-0.1949" relative="1" as="geometry">
            <mxPoint x="30" y="8" as="offset" />
          </mxGeometry>
        </mxCell>
        <mxCell id="zKQEcSLCpPxhF2zVhgCG-14" style="edgeStyle=orthogonalEdgeStyle;rounded=0;orthogonalLoop=1;jettySize=auto;html=1;exitX=1;exitY=0.5;exitDx=0;exitDy=0;entryX=0;entryY=0.5;entryDx=0;entryDy=0;startArrow=ERmandOne;startFill=0;endArrow=ERzeroToMany;endFill=0;" parent="1" source="zKQEcSLCpPxhF2zVhgCG-12" target="zKQEcSLCpPxhF2zVhgCG-6" edge="1">
          <mxGeometry relative="1" as="geometry">
            <mxPoint x="887" y="300" as="sourcePoint" />
            <mxPoint x="887" y="450" as="targetPoint" />
          </mxGeometry>
        </mxCell>
        <mxCell id="zKQEcSLCpPxhF2zVhgCG-20" value="Содержит" style="edgeLabel;html=1;align=center;verticalAlign=middle;resizable=0;points=[];" parent="zKQEcSLCpPxhF2zVhgCG-14" vertex="1" connectable="0">
          <mxGeometry x="-0.0556" y="-2" relative="1" as="geometry">
            <mxPoint y="-12" as="offset" />
          </mxGeometry>
        </mxCell>
        <mxCell id="zKQEcSLCpPxhF2zVhgCG-15" style="edgeStyle=orthogonalEdgeStyle;rounded=0;orthogonalLoop=1;jettySize=auto;html=1;exitX=0.5;exitY=1;exitDx=0;exitDy=0;entryX=0.5;entryY=0;entryDx=0;entryDy=0;startArrow=ERmandOne;startFill=0;endArrow=ERzeroToMany;endFill=0;" parent="1" source="zKQEcSLCpPxhF2zVhgCG-12" target="zKQEcSLCpPxhF2zVhgCG-3" edge="1">
          <mxGeometry relative="1" as="geometry">
            <mxPoint x="797" y="600" as="sourcePoint" />
            <mxPoint x="917" y="600" as="targetPoint" />
          </mxGeometry>
        </mxCell>
        <mxCell id="zKQEcSLCpPxhF2zVhgCG-21" value="Приходит" style="edgeLabel;html=1;align=center;verticalAlign=middle;resizable=0;points=[];" parent="zKQEcSLCpPxhF2zVhgCG-15" vertex="1" connectable="0">
          <mxGeometry x="0.0375" y="3" relative="1" as="geometry">
            <mxPoint x="27" y="-2" as="offset" />
          </mxGeometry>
        </mxCell>
      </root>
    </mxGraphModel>
  </diagram>
</mxfile>
